<svg xmlns="http://www.w3.org/2000/svg" viewBox="0 0 127.55 80.26">
    <defs>
        <style>
            .cls-1{fill:#8e3f7f;}
            .cls-2{fill:#fc6;}
            .cls-3{fill:#969696;}
        </style>
    </defs>
    <g id="Layer_2">
        <g id="Layer_1-2">
            <path class="cls-1"
                  d="M60,3.63a21.48,21.48,0,0,0-5.54,7.16,12.58,12.58,0,0,0-1,2.73c-.14,1,.19,1.48,3,4.41,1.08,1.13,2.46,2.65,3,3.34a12,12,0,0,1,2.9,6.83,1.93,1.93,0,0,0,.28,1.19,10.39,10.39,0,0,0,3.76.56,11.18,11.18,0,0,0,.26-2.34,6.25,6.25,0,0,1,.8-3.47c.8-1.49,1.89-2.66,4.39-4.74,1.46-1.23,1.79-1.6,1.79-2.07,0-1-1.13-2.23-7.14-7.77a19.49,19.49,0,0,1-4.57-5.64c-.27-.54-.58-1-.72-1A4.37,4.37,0,0,0,60,3.63Z"/>
            <path class="cls-1"
                  d="M44.72,8.17a29.94,29.94,0,0,0-8.82,10c-.59,1.1-.82,2.56-.43,2.56s1.69-1.29,3.65-3.9c.05,0,.33.23.64.62a42.1,42.1,0,0,0,6.5,6.25c3.2,2.59,4.15,3.51,5.34,5.38,1,1.62,1.58,1.86,2.91,1.39A15,15,0,0,1,57.65,30l2.13-.12.49-.72c1.23-1.81-.34-4.64-6-10.75-3.65-4-5.1-5.91-6.23-8.33C47.56,9,47.08,7.94,47,7.78,46.71,7.2,45.89,7.35,44.72,8.17Z"/>
            <path class="cls-1"
                  d="M32.52,11.2c-2.46,2.44-6.59,10.38-7.86,15.14-.49,1.87-.55,2.38-.53,5.74a24.48,24.48,0,0,0,.57,6.42c.7,3.45,1.32,5.24,1.85,5.34.37.08.39,0,.21-1.52-.72-6.3,1-13,4.26-17.11a9.85,9.85,0,0,0,2.22-4.78,9.43,9.43,0,0,1,1.64-4.1l.63-.88-.71-1.36a12.54,12.54,0,0,1-1-2.5,2.93,2.93,0,0,0-.39-1.15A4.55,4.55,0,0,0,32.52,11.2Z"/>
            <path class="cls-1"
                  d="M108,11.57a19,19,0,0,0-10.32,5.29l-.88.91,1.37,2c3.49,5.1,6.24,13.54,6.24,19.07a23.44,23.44,0,0,1-3.94,11.94,4.42,4.42,0,0,0-.72,1.42c.37.35,1.44-.39,3.41-2.36a50.29,50.29,0,0,0,6.66-8.35c.82-1.6,1.38-5.33,1.4-9.13a18.05,18.05,0,0,0-1.42-8.2c-1.7-4.13-1.66-7.2.13-10.75C111.09,11.16,111,11.08,108,11.57Z"/>
            <path class="cls-1"
                  d="M92.66,13.46a2,2,0,0,0-.14.92,3.76,3.76,0,0,1-.41,1.54c-.7,1.31-.47,2.58.39,2.11.62-.31.84-1,.84-2.52l0-1.27,1.31,1.37c1.4,1.48,1.87,1.66,2.47,1s.3-.74-2-2.14C93.24,13.31,92.91,13.19,92.66,13.46Z"/>
            <path class="cls-1"
                  d="M78,15.49a38.36,38.36,0,0,1-3.65,3.26,50.46,50.46,0,0,0-4.15,3.65c-2.13,2.3-3.14,5-2.46,6.57.39.92,1.21,1.43,3,1.88a20,20,0,0,1,2.93,1.07l1.6.74L78,30a46.72,46.72,0,0,1,3.49-3.16,2.89,2.89,0,0,0,1.31-3,45.26,45.26,0,0,0-2.57-7.94C79.47,14.22,79.13,14.16,78,15.49Z"/>
            <path class="cls-1"
                  d="M4.66,15.63a10.23,10.23,0,0,0,.91,2.53,26.83,26.83,0,0,1,2.35,13c-.22,4.78.56,10.42,1.77,12.92.57,1.21.65,1.3.9.95a1.83,1.83,0,0,0,0-2c-.29-.58-.29-.74,0-1.79.16-.63.37-1.49.45-1.93a1.74,1.74,0,0,1,.21-.75s.78.45,1.64,1A15.51,15.51,0,0,0,15.56,41a57.93,57.93,0,0,0,8,1.58,65.87,65.87,0,0,0-1.31-7.24,4.34,4.34,0,0,1-.2-1.44,4.19,4.19,0,0,0-.35-1.78c-.6-1.3-5.52-7-8.91-10.41-3-3-7.07-6.35-7.69-6.35A.46.46,0,0,0,4.66,15.63Z"/>
            <path class="cls-1"
                  d="M84.36,16.23a1.31,1.31,0,0,0-.25.84,2.89,2.89,0,0,1-.2,1,6.81,6.81,0,0,0-.42,3.45c.27,1.89.6,2.89,1,2.89a5.73,5.73,0,0,0,1.6-1c.68-.54,1.64-1.23,2.13-1.54.68-.43.86-.66.86-1.11,0-.78-.94-2.17-2.44-3.59C85.38,16,84.83,15.76,84.36,16.23Z"/>
            <path class="cls-1"
                  d="M93.07,20.17a45,45,0,0,1-3.69,3c-1.25.95-3.59,2.69-5.17,3.88A34.41,34.41,0,0,0,76.15,35c-1.41,2.17-2,3.57-1.93,5.13s.47,2.21,2,3.22a14.23,14.23,0,0,1,4,4.37c.78,1.37,1.4,2.11,1.77,2.11s.9-.82.9-1.44c0-1.06.94-1.37,1.54-.49a34.83,34.83,0,0,1,4,9.87c.59,2.54.59,2.54,2.25,1.15,5.42-4.5,9.79-10.47,11.14-15.18a15.1,15.1,0,0,0,.45-5.09,23.32,23.32,0,0,0-.37-5.23,38.24,38.24,0,0,0-2.93-8.52c-1.35-2.74-3.53-5.92-4.08-6C94.61,18.87,93.94,19.37,93.07,20.17Z"/>
            <path class="cls-1"
                  d="M37.81,21.25c-6,4.84-7.83,7.68-9.09,14.12-1.21,6.27.25,10.91,5,16.06,1.93,2.07,4.74,4.35,5.4,4.35h.57l-.08-2a10.44,10.44,0,0,1,1.11-5.75c1.43-2.93,4-5.35,7.85-7.57,2.59-1.45,3.12-2,3.26-3.36a16,16,0,0,0-1.53-6.4c-.95-1.89-2.38-3.4-5.52-5.85a49.07,49.07,0,0,1-3.9-3.3,6.37,6.37,0,0,0-1.62-1.29A5.35,5.35,0,0,0,37.81,21.25Z"/>
            <path class="cls-1"
                  d="M58.9,31.06a5.78,5.78,0,0,1-1.85.31,4.82,4.82,0,0,0-3.22.84c-.41.39-.49.63-.47,1.7,0,2,.25,3.08.66,3.16.59.12,2.85-1.07,3.77-2a12.71,12.71,0,0,0,1.4-1.78c.67-1.17,1.12-1.21,1.62-.13.55,1.29,1.84,2.24,6.58,4.8s5,2.67,5,1.27a9.05,9.05,0,0,1,1.27-3.89c.8-1.32.68-1.87-.55-2.4C69.77,31.51,60.64,30.26,58.9,31.06Z"/>
            <path class="cls-1"
                  d="M58.37,36.9c-.78.54-3,1.85-4.93,2.9-4.51,2.44-6.7,4-8.49,5.82-2.5,2.65-3.51,5-3.51,8.08s1.21,7.08,3.39,11.45a28.93,28.93,0,0,0,5.64,8c1.78,1.79,4.61,3.92,5.21,3.92s.41-.49-.1-.94A16.58,16.58,0,0,1,52.7,71.8a10.38,10.38,0,0,1-.2-6.09c1.41-4.58,6.07-7.25,22.42-12.89,4.8-1.66,5.17-2.11,3.65-4.39-1.82-2.7-4.43-4.67-10.85-8.08C65.4,39.1,62.78,37.6,61.92,37a8,8,0,0,0-1.85-1.09A8.37,8.37,0,0,0,58.37,36.9Z"/>
            <path class="cls-1"
                  d="M116.54,39.59c-2.42.47-4.35,2.16-8,7-3.08,4.06-5.09,6-7.36,7.13a9.72,9.72,0,0,1-2.12.85c-.94,0-2.19.88-3.91,2.77a34.39,34.39,0,0,1-3.74,3.38,14.47,14.47,0,0,0-2.11,1.81,7.74,7.74,0,0,0-.33,1.78,22.37,22.37,0,0,1-1.46,5.76l-.55,1.4.47.37a2.45,2.45,0,0,0,1.6.37,6.5,6.5,0,0,1,1.83.24c1.52.56,6.15-.57,9.43-2.29A29.77,29.77,0,0,0,108.11,64c4.55-4.57,6.87-8.39,8.33-13.74a36.62,36.62,0,0,1,1.31-4,8.14,8.14,0,0,1,3.8-3.84c1.74-.78,1.84-.84,1.9-1.23s-1.29-1.07-3.2-1.46A8.06,8.06,0,0,0,116.54,39.59Z"/>
            <path class="cls-1"
                  d="M12.31,42.14c-.34.43-.12,3.3.41,5.64C14.9,57,19.49,63.67,28,70a22,22,0,0,0,7.09,3.61c5.25,1.77,12.89,3.2,14.24,2.69.94-.37.8-.74-.88-2.6a35.8,35.8,0,0,1-7-11.47c-.47-1.23-1-2.5-1.19-2.83a13.28,13.28,0,0,0-2.5-2,31,31,0,0,1-7.4-7.18c-1.79-2.57-2.92-3.65-4.74-4.52a20.85,20.85,0,0,0-6.53-1.88c-2.68-.39-4.63-1-5.39-1.54S12.66,41.73,12.31,42.14Z"/>
            <path class="cls-1"
                  d="M82.78,51.39c-1,.82-4,2.07-8.43,3.57-8,2.7-14.79,5.64-17.13,7.38a6.79,6.79,0,0,0-3.1,6c0,6.94,7.49,11.28,16.92,9.85,4.76-.72,10.12-3.28,12.8-6.11,3.94-4.15,4.37-12.44,1-19.23C84,51.06,83.56,50.77,82.78,51.39Z"/>
            <path class="cls-2"
                  d="M59.22,1a30.06,30.06,0,0,0-7.5,9.44L50.9,12l-.85-1a15.34,15.34,0,0,1-2.62-4.88c-.43-1.35-1-1.84-2-1.82s-1.38.32-6,4.45a51.4,51.4,0,0,1-4.25,3.55c-.06-.07-.22-1.67-.39-3.57s-.31-3.53-.35-3.63c-.08-.25-3.22,3.3-5,5.66a50.65,50.65,0,0,0-5.23,8.67,56,56,0,0,0-3.59,9.91c-.15.86-.35,1.11-.56.6a60.22,60.22,0,0,0-6-7.1,65.07,65.07,0,0,0-8.08-7A53.35,53.35,0,0,0,0,12.08,12.83,12.83,0,0,0,1,14a33.49,33.49,0,0,1,4.1,10.69c.12.84.31,4.2.41,7.48.21,6.3.31,7.2,1.13,10A93,93,0,0,0,14.9,60.51,39.77,39.77,0,0,0,35.39,75.92a41,41,0,0,0,13.29,1.92,24.89,24.89,0,0,1,3.59.19A61.74,61.74,0,0,0,65,80.22c5.87.33,12.27-1.51,15.94-4.59,1.88-1.56,1.88-1.56,7.24-1.7,5-.15,6.34-.31,9.19-1.3A26.66,26.66,0,0,0,107.86,66c3.82-3.82,6.22-7.76,8.8-14.53a38,38,0,0,1,2.13-4.8,10.21,10.21,0,0,1,7-4.45,6,6,0,0,0,1.74-.47c0-.29-2.33-2-3.69-2.73a20.83,20.83,0,0,0-3-1.15c-2.92-.8-7.24-.55-9.4.58l-.61.31.12-.78a27.63,27.63,0,0,0-1.13-14.38,11.78,11.78,0,0,1-.88-5.09c0-2.71.14-3.3,1.58-6.52a6.48,6.48,0,0,0,.68-1.95,10.79,10.79,0,0,0-2.53-.13,16.48,16.48,0,0,0-9.23,2.69c-2,1.33-2.75,1.15-7-1.93-1.4-1-2.86-2-3.25-2.32l-.69-.49.14,1.07a56.84,56.84,0,0,1,.41,8.39l-.14,1.89L88.17,18a13.55,13.55,0,0,0-1.93-2.24c-1.23-1.13-3.61-2.44-4.08-2.26a3.39,3.39,0,0,0-.56,1.67,5.06,5.06,0,0,1-.45,1.68C81,17,79.78,14.46,78.92,12l-.64-1.83-.7,1.44a9,9,0,0,1-3,3.59c-.51.28-.6.24-2.57-1.42A56.18,56.18,0,0,1,61.89,2.44L60.35.12Zm1.46,4.27a27.73,27.73,0,0,0,4.1,4.45c5.89,5.54,7,6.79,7,7.9a5.74,5.74,0,0,1-1.54,1.45,13.28,13.28,0,0,0-4.94,6.67c-.37,1.07-.46,1.56-.31,1.7a.69.69,0,0,1-.31,1.17,4.65,4.65,0,0,1-1.5.21c-1.27,0-1.76-.52-1.95-2C60.87,24.14,59.53,22,56,18.32s-3.69-4.21-2.4-6.79c1.52-3,5.19-7.72,6-7.72A9,9,0,0,1,60.68,5.27ZM45.46,7.53a10.57,10.57,0,0,1,.66,1.39c.86,2.05,3,5,6.15,8.41,3.73,4.06,5.07,5.76,6.15,7.88.89,1.72,1,2.75.48,3.24a32.62,32.62,0,0,1-7.39,1.31,2.58,2.58,0,0,1-.86-1c-.8-1.52-2.54-3.29-5.85-5.85S40,18.87,39,17.27a5.29,5.29,0,0,0-.76-1c-.37,0-.92.52-1.38,1.3a9.49,9.49,0,0,1-1.51,1.8l-1,.9-.06-.55c-.1-.94,1.91-4.35,4.18-7,1.85-2.15,5.79-5.43,6.55-5.43A.78.78,0,0,1,45.46,7.53ZM33.05,12.82a16.21,16.21,0,0,1,.76,2.09,11.58,11.58,0,0,1-.84,2,22.6,22.6,0,0,0-1.32,3.63,11.11,11.11,0,0,1-2.25,4.82,24,24,0,0,0-3.78,8.45A25.36,25.36,0,0,0,25.5,43c.1.43.08.47-.16.25-.6-.49-1.19-2.34-1.71-5.29-.94-5.63-.88-9.22.25-12.54a61.54,61.54,0,0,1,4.62-9.25A36.31,36.31,0,0,1,32.17,11,8.23,8.23,0,0,1,33.05,12.82Zm60.55.74c1.69,1,2.2,1.68,1.75,2.23s-.84.35-1.85-.74c-.55-.61-1.06-1-1.21-.92a2.61,2.61,0,0,0-.22,1.31,3.2,3.2,0,0,1-.35,1.69c-.93,1.35-1.09,1-1.09-2,0-2.89.14-3.32,1-2.79C91.84,12.47,92.76,13,93.6,13.56Zm14.2-1.13c.16.16.06.57-.37,1.5a11.37,11.37,0,0,0-.08,8.94A18.21,18.21,0,0,1,109,30.15c.14,3.08-.25,8.12-.68,9a3.38,3.38,0,0,0-.28,1.33,5.23,5.23,0,0,1-.5,1.8,37.26,37.26,0,0,1-4.82,6.34c-1.19,1.25-3.48,3.08-3.67,2.92a4.8,4.8,0,0,1,.66-1.34c3.1-5.09,4-9.19,3.32-14.89A33.56,33.56,0,0,0,97.46,20l-1.15-1.7.33-.68C97.77,15.28,106.55,11.18,107.8,12.43ZM79.51,17.27a39.18,39.18,0,0,1,1.58,4.9c.45,2,.47,2.26.19,2.83-.5,1-6.55,6.36-7.25,6.44a32.79,32.79,0,0,1-6.72-2.33c-.31-.21-.37-.56-.37-1.87,0-3,1.29-4.76,6.09-8.49a35,35,0,0,0,3.59-3.16C78.06,13.9,78.2,14,79.51,17.27Zm5.66.35c1.11,1.23,2.08,3,1.85,3.36a16.3,16.3,0,0,1-3.86,2.85c-.22-.08-.41-.8-.65-2.52A3,3,0,0,1,83,19.22a6.73,6.73,0,0,0,.64-1.64C83.66,16.67,84.33,16.69,85.17,17.62ZM11.65,23.89A85.73,85.73,0,0,1,20,33.43c.43.66.76,1.73,1.36,4.48A22.68,22.68,0,0,1,22,41.74c-.2.33-1.33.25-3.94-.29-3.69-.76-6.07-1.78-7.32-3.18a.84.84,0,0,0-1.39-.08C9.07,38.46,9,38.83,9,40c0,1.45-.27,2.4-.49,1.76-.35-1-.78-6.17-1-11.36-.2-6.59-.45-8.27-1.76-11.72C5.54,18,7.86,20.08,11.65,23.89Zm83.72-3a34.6,34.6,0,0,1,5,12c.52,2.58.52,8.65,0,10.54-1.1,4.06-4.36,8.82-9.31,13.54-1.66,1.58-2.5,2.26-2.79,2.22s-.51-.45-1-2.22a36.24,36.24,0,0,0-1.21-3.79c-.91-2.28-3.1-6.49-3.45-6.63-.53-.2-1,.29-1.13,1.31-.33,1.89-.88,2-1.78.33a15.58,15.58,0,0,0-4-4.72c-2.2-1.74-2.42-2.11-2.42-3.83,0-2.55,1.49-5.17,4.76-8.33,2.13-2.07,15.59-12.56,15.87-12.37A20.7,20.7,0,0,1,95.37,20.86Zm-54.07,2c6.17,5,7.77,6.71,8.41,9.11.45,1.74.61,5.39.26,6a10.7,10.7,0,0,1-2.36,1.76c-4.28,2.65-6.64,4.91-8.12,7.86A11.65,11.65,0,0,0,38.16,54a4.77,4.77,0,0,1-.06,1.51c-.52,0-3-2-4.93-4-2.66-2.74-3.81-4.39-4.72-6.68-2.6-6.75-.59-15.12,5.05-20.93,1.48-1.51,3.92-3.42,4.41-3.42A23.3,23.3,0,0,1,41.3,22.89ZM64.48,31.4c1.35.17,3.11.45,3.89.62,1.85.39,3.92,1.35,4.11,1.91a4.21,4.21,0,0,1-.64,2A9.93,9.93,0,0,0,71,38.56c-.06.64-.19,1.13-.29,1.13-.25,0-5.44-2.63-7.22-3.65-2-1.13-3.63-2.73-4-3.8-.14-.43-.37-.73-.49-.69A5.81,5.81,0,0,0,57.79,33a7.35,7.35,0,0,1-3.3,2.9c-1.3.65-1.56.61-1.93-.23a6.39,6.39,0,0,1-.17-3.08c.23-.57,1.23-.92,2.61-.92a6.09,6.09,0,0,0,2-.31C58,31,61.36,31,64.48,31.4ZM61,37.11c1.11.71,3.69,2.19,5.76,3.28,4.35,2.27,6.28,3.53,8.17,5.29a12.21,12.21,0,0,1,3,4,1,1,0,0,1-.2.86A78.78,78.78,0,0,1,69.19,54c-11.87,4.35-14.44,5.72-16.71,9-2.45,3.47-2.43,6.87.08,10.89a15.18,15.18,0,0,0,1.33,1.85c.78.72.45.76-.84.1-1.78-.88-5.17-4.31-7.06-7.16-3.5-5.27-5.76-11.87-5.58-16.33a6.4,6.4,0,0,1,.82-3.38,15.14,15.14,0,0,1,4.46-5.09c1-.76,12.9-7.92,13.29-8C59,35.79,59.92,36.39,61,37.11Zm59.45,2.81c.9.36,1.25.63,1.29,1s-.08.47-.8.66a7.52,7.52,0,0,0-4.51,4.14,26,26,0,0,0-1.3,3.69,30.38,30.38,0,0,1-2.07,5.91,35.39,35.39,0,0,1-5,6.85c-5.56,6.24-11,9.38-16.78,9.7a14.4,14.4,0,0,1-5.19-.53c-.19-.1-.08-.53.39-1.62A16.83,16.83,0,0,0,87.76,64V63l1.89-1.82a83.31,83.31,0,0,1,6.56-5.81A19.12,19.12,0,0,1,98.88,54c3.4-1.48,4.86-2.75,8.37-7.37s4.8-5.9,7.11-6.87A9,9,0,0,1,120.48,39.92Zm-108,2.44a49.56,49.56,0,0,0,5,1.21c6.75,1.37,8.57,2.34,11,5.82a34.27,34.27,0,0,0,7.81,7.72,12,12,0,0,1,2.61,2.15,23.91,23.91,0,0,1,1.21,2.79,33.52,33.52,0,0,0,6.79,11.32,12.07,12.07,0,0,1,1.66,2c0,.7-5.11.35-9-.59a51.18,51.18,0,0,1-11.3-4.17A42,42,0,0,1,21.58,65c-6.21-6.21-9.76-13.49-10.25-21a8,8,0,0,1,0-2.07A9.53,9.53,0,0,1,12.47,42.36ZM83.39,52.51c2.58,4.84,3,12.25,1,16.66-1.47,3.24-8.28,7.46-13.84,8.57A17.08,17.08,0,0,1,66,78a15.14,15.14,0,0,1-7.38-1.73,8.61,8.61,0,0,1-4.74-4.69,6.46,6.46,0,0,1-1-3.26,4.25,4.25,0,0,1,.43-2.63c1-2.09,2.89-3.77,6.52-5.62,2.59-1.33,4.74-2.2,11.26-4.47A93.46,93.46,0,0,0,81.6,51.48C82.4,51,82.69,51.18,83.39,52.51Z"/>
            <path class="cls-3"
                  d="M59.05,1.64C55.62,4.89,53,9,53,11.16c0,1.66.51,1.46,2-.78a6.32,6.32,0,0,1,3.59-2.52c2.5-.74,4.24,0,9.66,4.1,2,1.54,3.94,2.94,4.24,3.1.64.33,1.46.39,1.36.1,0-.12-2.2-2.42-4.82-5.11s-5.19-5.41-5.73-6A11.21,11.21,0,0,1,61.2.27C61.2-.28,60.85-.06,59.05,1.64Z"/>
            <path class="cls-3"
                  d="M34.39,5.34c-.9,1-4.29,5.64-5.83,8-4.73,7.2-6.87,14.25-6.15,20.18.29,2.38,1.15,5.38,1.68,5.91l.41.41-.12-1.44A34.72,34.72,0,0,1,24.46,34,47.08,47.08,0,0,1,29,16.37c1.43-3,2-3.83,3-4.24a2.18,2.18,0,0,1,2.61.67l.67.7.13-1.37a46.55,46.55,0,0,0,0-6.92C35.25,4.76,34.88,4.8,34.39,5.34Z"/>
            <path class="cls-3"
                  d="M44.28,5.87a23.75,23.75,0,0,0-5.77,4.25,11.08,11.08,0,0,0-2.6,3.59c-.92,1.88-1.68,4.61-1.54,5.53.06.39.1.41.51.11a10.09,10.09,0,0,0,1.44-2,11.68,11.68,0,0,1,4.74-4.74,5.11,5.11,0,0,1,3-.64c2.92,0,5.23,1.29,8.52,4.6a49.67,49.67,0,0,1,6.81,8.88l1.7,2.69.06-1a11.43,11.43,0,0,0-2-5.93c-1.07-1.62-2.63-3.26-6.57-7-3.3-3.14-4.9-5.42-5.72-8.1-.18-.62-.47-1.15-.63-1.19A7.21,7.21,0,0,0,44.28,5.87Z"/>
            <path class="cls-3"
                  d="M87,6.67a19.92,19.92,0,0,0-2.3,5,26.56,26.56,0,0,0-1.15,7.18c0,2.65.31,2.57,1.68-.43a6.92,6.92,0,0,1,5.27-4.28c1.26-.23,1.36-.21,1.54.53.25,1-.78,2.65-2.93,4.8a36.1,36.1,0,0,1-6.26,4.8c-5.88,3.9-8,6.05-9.15,9.44-.47,1.31-.63,3.46-.28,3.81.16.17.45-.27,1.08-1.56a18.28,18.28,0,0,1,4.48-6,17.21,17.21,0,0,1,5.84-3.86,6.74,6.74,0,0,1,3.86-.75,6.29,6.29,0,0,1,4.1.94c3.76,1.8,5.29,4.33,5.66,9.19.45,6-1.7,13.31-5.58,19.12C91.58,56.48,91.36,57,91.77,57s5-4.64,6.29-6.36c5.52-7.28,6.24-16.37,2-25.19a70.11,70.11,0,0,0-4.59-7.94,17.81,17.81,0,0,0-4.58-4.45c-1.6-1.11-1.86-1.38-2.44-2.52a4.24,4.24,0,0,1-.55-2.71c0-1.13,0-1.4-.27-1.46A.86.86,0,0,0,87,6.67Z"/>
            <path class="cls-3"
                  d="M105.65,9.93a18.4,18.4,0,0,0-8.14,3.94c-.72.62-1,1.05-1,1.39,0,.5,0,.5.62.19a7,7,0,0,1,7.49,1.15c1.86,1.64,3.52,7.55,4,14.21.16,2.47.26,3,.76,4L109.9,36l.18-.82a39.32,39.32,0,0,0,.09-4.82,41.37,41.37,0,0,0-.64-7c-1.13-6.24-1.17-7.47-.33-9.71a5.23,5.23,0,0,1,1.56-2.17,4.4,4.4,0,0,0,1.11-1.31C111.87,9.56,108.4,9.44,105.65,9.93Z"/>
            <path class="cls-3"
                  d="M77.71,11.8a68,68,0,0,1-4.78,5c-6,5.73-7.42,7.69-7.42,10,0,1.66.27,1.74.9.29,1.29-3.06,4.29-6.77,6.57-8.15a6.81,6.81,0,0,1,4.34-1.06,5.6,5.6,0,0,1,3.31,2.09c2,2.85,2.4,3.22,2.19,1.78a35.85,35.85,0,0,0-1.72-6.4,34.14,34.14,0,0,0-2.52-4.63S78.17,11.16,77.71,11.8Z"/>
            <path class="cls-3"
                  d="M2.92,13.32a51.47,51.47,0,0,1,3.39,7c1,2.83,1.15,3.86,1.11,9.68a44.51,44.51,0,0,0,.32,7.76c.45,3,.82,4.34,1.34,4.8s.41.34.55-.17a2.87,2.87,0,0,0-.18-1.41,37,37,0,0,1-.91-8c-.12-3.31.21-5.15,1.25-6.69a4.23,4.23,0,0,1,3.14-1.89c1.17,0,2.83.72,5.15,2.24a17.21,17.21,0,0,0,2.48,1.45c.6,0-.63-1.41-4.22-4.86-6.11-5.86-9.09-8.26-13.48-10.93l-.78-.47Z"/>
            <path class="cls-3"
                  d="M37.88,18.46c-4.88,4.13-7.24,6.84-9,10.32a14.43,14.43,0,0,0-1.84,8.11,22.44,22.44,0,0,0,.22,3.59c.19.57.23.47.66-1.34,1.43-6,3.65-10.38,6.56-13.19,2.59-2.5,5.28-3.3,8.15-2.44,3.46,1.07,6.07,3.49,8.51,8,.84,1.56,1.11,1.44,1.11-.51,0-2.77-1.48-4.7-5.85-7.63-3.08-2.07-4.66-3.59-5.52-5.3a3.91,3.91,0,0,0-.82-1.27A16.76,16.76,0,0,0,37.88,18.46Z"/>
            <path class="cls-3"
                  d="M59.77,28.41c-2.82.27-5.83,1.11-6.14,1.67a.78.78,0,0,0,0,.63c.14.21.62.19,2.4-.1a50.77,50.77,0,0,1,13.42.1c4.55.76,4.32.74,4.18.35-.22-.57-1.52-1.09-4.39-1.76A28.76,28.76,0,0,0,59.77,28.41Z"/>
            <path class="cls-3"
                  d="M55.33,33.32C46.45,39,42.29,43,40.4,47.49a13.68,13.68,0,0,0-.82,8.35c.64,2.56,3.9,8.39,6.09,10.89.64.72.74.78.88.43s-.14-1-.77-2.25A20.07,20.07,0,0,1,43.42,54,13.71,13.71,0,0,1,45,47.47a16.46,16.46,0,0,1,10.32-8.33,22.4,22.4,0,0,1,8.29-.35,24.32,24.32,0,0,1,11.49,5.38,5.13,5.13,0,0,0,1.47,1c.93-.92-4.8-6-12.55-11-3.79-2.48-4.41-2.83-5.09-2.83A18.35,18.35,0,0,0,55.33,33.32Z"/>
            <path class="cls-3"
                  d="M117.92,35.47c-3,.37-8,2.79-11.14,5.5a22.71,22.71,0,0,0-6.07,9.43c-.39,1.32-.62,1.44,2.93-1.58,4.33-3.65,6.38-4.75,8.84-4.75,1.71,0,2.06.36,2.06,2.13,0,3.61-2.84,8.55-7.86,13.8a48.1,48.1,0,0,1-13,9.67A17,17,0,0,0,91,71.25c-.23.26-.13.3.86.3a24.75,24.75,0,0,0,9.29-2.4,25.92,25.92,0,0,0,9-7.85c.56-.84,2.47-4.6,4.23-8.31,3.47-7.3,4.35-9,5.48-10.2,1.52-1.68,3.55-2.66,4.28-2.09.54.39.64.35.78-.31.33-1.49-1.12-3.73-2.91-4.47A7.67,7.67,0,0,0,117.92,35.47Z"/>
            <path class="cls-3"
                  d="M11.85,38a69.11,69.11,0,0,0,.43,10.36C14,59.78,18.45,66.79,26.43,70.77c3.12,1.58,6.75,2.69,13.4,4.17,3.4.76,4,.82,4,.33,0-.17-.7-.5-1.85-.82-9.29-2.82-18.46-9.71-22.13-16.64a15.26,15.26,0,0,1-2-7.61c0-2.36.18-3,1.21-3.9,2.38-2.21,5.52-1.72,10.15,1.6A50.33,50.33,0,0,1,36,54.32l.76.92v-.71c0-1.4-2.54-5.25-5.21-7.9-3.18-3.16-5.93-4.55-11.3-5.76-4.19-.93-5.62-1.4-6.9-2.26-.59-.39-1.14-.76-1.25-.82S11.91,37.83,11.85,38Z"/>
            <path class="cls-3"
                  d="M124.28,41.6c-.06.11,0,.21.08.21a.23.23,0,0,0,.23-.21c0-.12,0-.2-.09-.2S124.34,41.48,124.28,41.6Z"/>
            <path class="cls-3"
                  d="M82.14,46.65c-2.29,2.44-5.12,3.75-12.3,5.72a41,41,0,0,0-9.11,3.29C53,59.59,50.58,64.41,53.18,70.88c.57,1.43,1.42,2.77,1.66,2.62s.25-1-.08-1.31-.6-2-.25-3.63C55.64,63.12,61.1,58,68.65,55.37c5.29-1.87,8.57-2,11.55-.64,4.69,2.26,5.1,8.08,1.1,16.54a15.9,15.9,0,0,0-.94,2.29,2.63,2.63,0,0,0,.88-.16c2.3-.76,4.39-3.51,5.29-7,1.34-5.19.31-13.77-2.31-19.1C83.56,46,82.94,45.79,82.14,46.65Z"/>
            <path class="cls-3"
                  d="M44.69,75.86a.73.73,0,0,0,.53.21c.21,0,.39-.11.39-.21s-.25-.2-.53-.2S44.61,75.74,44.69,75.86Z"/>
        </g>
    </g>
</svg>